<svg xmlns="http://www.w3.org/2000/svg" version="1.1" xmlns:xlink="http://www.w3.org/1999/xlink" xmlns:svgjs="http://svgjs.dev/svgjs" width="2000" height="727" viewBox="0 0 2000 727"><g transform="matrix(1,0,0,1,-1.2121212121210192,1.1283248687381047)"><svg viewBox="0 0 396 144" data-background-color="#a437db" preserveAspectRatio="xMidYMid meet" height="727" width="2000" xmlns="http://www.w3.org/2000/svg" xmlns:xlink="http://www.w3.org/1999/xlink"><g id="tight-bounds" transform="matrix(1,0,0,1,0.23999999999995225,-0.223492133560228)"><svg viewBox="0 0 395.52 144.44698426712046" height="144.44698426712046" width="395.52"><g><svg viewBox="0 0 669.2939419795563 244.43136" height="144.44698426712046" width="395.52"><g transform="matrix(1,0,0,1,273.7739419795563,10.598789423036067)"><svg viewBox="0 0 395.52 223.23378115392788" height="223.23378115392788" width="395.52"><g id="textblocktransform"><svg viewBox="0 0 395.52 223.23378115392788" height="223.23378115392788" width="395.52" id="textblock"><g><svg viewBox="0 0 395.52 124.29294794708613" height="124.29294794708613" width="395.52"><g transform="matrix(1,0,0,1,0,0)"><svg width="395.52" viewBox="2.15 -35 112.95447368421051 35.5" height="124.29294794708613" data-palette-color="#ffffff"><path d="M12.75-7.7L11-7.7 8.4-15.7Q8.25-16.1 7.93-17.3 7.6-18.5 7.13-20.13 6.65-21.75 6.18-23.45 5.7-25.15 5.3-26.65 4.9-28.15 4.63-29.08 4.35-30 4.35-30L4.35-30 5.95-35 10.7-19.85Q10.95-19.1 11.23-18.15 11.5-17.2 11.73-16.32 11.95-15.45 12.13-14.88 12.3-14.3 12.3-14.3L12.3-14.3Q12.3-14.3 12.43-14.88 12.55-15.45 12.78-16.32 13-17.2 13.25-18.1 13.5-19 13.75-19.75L13.75-19.75 18.15-34.2 19.95-29.8Q19.95-29.8 19.7-28.9 19.45-28 19.05-26.55 18.65-25.1 18.18-23.4 17.7-21.7 17.25-20.1 16.8-18.5 16.45-17.32 16.1-16.15 15.95-15.7L15.95-15.7 13.3-8.1Q13.15-7.7 12.75-7.7L12.75-7.7ZM2.15 0L2.15 0 2.15-34.2Q2.15-34.75 2.4-34.88 2.65-35 3-35L3-35 5.95-35 6.2-28.6 5.15-26.95Q5.15-26.95 5.23-26.25 5.3-25.55 5.38-24.38 5.45-23.2 5.58-21.68 5.7-20.15 5.83-18.53 5.95-16.9 6.03-15.3 6.1-13.7 6.1-12.4L6.1-12.4 6.2-0.8Q6.2-0.4 5.98-0.25 5.75-0.1 4.9-0.05 4.05 0 2.15 0ZM18.1 0L18.1 0 18.3-12.2Q18.3-13.5 18.38-15.1 18.45-16.7 18.57-18.4 18.7-20.1 18.8-21.68 18.9-23.25 19-24.5 19.1-25.75 19.15-26.5 19.2-27.25 19.2-27.25L19.2-27.25 18.15-28.2 18.15-34.2Q18.3-34.55 18.43-34.77 18.55-35 18.95-35L18.95-35Q20.6-35 21.3-35 22-35 22.13-35 22.25-35 22.25-35L22.25-35 22.25-0.8Q22.25-0.4 22.08-0.25 21.9-0.1 21.05-0.05 20.2 0 18.1 0ZM26.75 0L26.75 0 26.75-23.15Q26.75-24.1 27.1-24.48 27.45-24.85 28.35-24.93 29.25-25 30.9-25L30.9-25 30.9-0.8Q30.9-0.4 30.72-0.25 30.55-0.1 29.7-0.05 28.85 0 26.75 0ZM28.7-28.45L28.7-28.45Q27.75-28.5 27.2-29.18 26.65-29.85 26.65-31.6L26.65-31.6Q26.7-32.95 27.25-33.77 27.8-34.6 29-34.6L29-34.6Q30.15-34.6 30.6-33.95 31.05-33.3 31-31.7L31-31.7Q31-30.2 30.42-29.33 29.85-28.45 28.7-28.45ZM36.1 0L36.1 0 36.1-23.8Q37.1-24.25 38.45-24.63 39.8-25 41.25-25.25 42.7-25.5 44.05-25.5L44.05-25.5Q46.65-25.5 48.2-24.83 49.75-24.15 50.4-22.7 51.05-21.25 51.05-18.8L51.05-18.8 51.05-0.8Q51.05-0.4 50.85-0.25 50.65-0.1 49.8-0.05 48.95 0 46.85 0L46.85 0 46.85-17.6Q46.85-19.95 46.3-20.95 45.75-21.95 43.9-21.95L43.9-21.95Q43.05-21.95 42-21.75 40.95-21.55 40.15-21.05L40.15-21.05 40.15-0.8Q40.15-0.4 39.97-0.25 39.8-0.1 38.95-0.05 38.1 0 36.1 0ZM65.99-7.7L64.24-7.7 61.64-15.7Q61.49-16.1 61.17-17.3 60.84-18.5 60.37-20.13 59.89-21.75 59.42-23.45 58.94-25.15 58.54-26.65 58.14-28.15 57.87-29.08 57.59-30 57.59-30L57.59-30 59.19-35 63.94-19.85Q64.19-19.1 64.47-18.15 64.74-17.2 64.97-16.32 65.19-15.45 65.37-14.88 65.54-14.3 65.54-14.3L65.54-14.3Q65.54-14.3 65.67-14.88 65.79-15.45 66.02-16.32 66.24-17.2 66.49-18.1 66.74-19 66.99-19.75L66.99-19.75 71.39-34.2 73.19-29.8Q73.19-29.8 72.94-28.9 72.69-28 72.29-26.55 71.89-25.1 71.42-23.4 70.94-21.7 70.49-20.1 70.04-18.5 69.69-17.32 69.34-16.15 69.19-15.7L69.19-15.7 66.54-8.1Q66.39-7.7 65.99-7.7L65.99-7.7ZM55.39 0L55.39 0 55.39-34.2Q55.39-34.75 55.64-34.88 55.89-35 56.24-35L56.24-35 59.19-35 59.44-28.6 58.39-26.95Q58.39-26.95 58.47-26.25 58.54-25.55 58.62-24.38 58.69-23.2 58.82-21.68 58.94-20.15 59.07-18.53 59.19-16.9 59.27-15.3 59.34-13.7 59.34-12.4L59.34-12.4 59.44-0.8Q59.44-0.4 59.22-0.25 58.99-0.1 58.14-0.05 57.29 0 55.39 0ZM71.34 0L71.34 0 71.54-12.2Q71.54-13.5 71.62-15.1 71.69-16.7 71.82-18.4 71.94-20.1 72.04-21.68 72.14-23.25 72.24-24.5 72.34-25.75 72.39-26.5 72.44-27.25 72.44-27.25L72.44-27.25 71.39-28.2 71.39-34.2Q71.54-34.55 71.67-34.77 71.79-35 72.19-35L72.19-35Q73.84-35 74.54-35 75.24-35 75.37-35 75.49-35 75.49-35L75.49-35 75.49-0.8Q75.49-0.4 75.32-0.25 75.14-0.1 74.29-0.05 73.44 0 71.34 0ZM86.29 0.5L86.29 0.5Q84.89 0.5 83.62 0.28 82.34 0.05 81.34-0.73 80.34-1.5 79.74-3 79.14-4.5 79.14-7.1L79.14-7.1Q79.14-9.7 79.69-11.33 80.24-12.95 81.19-13.83 82.14-14.7 83.34-15 84.54-15.3 85.79-15.3L85.79-15.3Q86.59-15.3 87.67-15.15 88.74-15 89.49-14.65L89.49-14.65Q89.49-14.65 89.49-15.35 89.49-16.05 89.49-16.98 89.49-17.9 89.49-18.6L89.49-18.6Q89.49-19.8 89.12-20.43 88.74-21.05 88.07-21.33 87.39-21.6 86.39-21.6L86.39-21.6Q84.44-21.6 82.64-21.25 80.84-20.9 79.74-20.45L79.74-20.45Q79.39-21.05 79.29-21.68 79.19-22.3 79.19-22.8L79.19-22.8Q79.19-23.15 79.32-23.55 79.44-23.95 79.74-24.15L79.74-24.15Q80.39-24.55 82.44-25.03 84.49-25.5 87.34-25.5L87.34-25.5Q90.59-25.5 92.07-24.15 93.54-22.8 93.54-19.4L93.54-19.4 93.54-16.75Q93.54-13.9 93.52-11.03 93.49-8.15 93.44-5.63 93.39-3.1 93.24-1.2L93.24-1.2Q92.24-0.6 90.49-0.05 88.74 0.5 86.29 0.5ZM86.69-2.9L86.69-2.9Q87.49-2.9 88.24-3.15 88.99-3.4 89.29-3.75L89.29-3.75Q89.39-4.55 89.42-5.95 89.44-7.35 89.47-8.9 89.49-10.45 89.49-11.8L89.49-11.8Q88.99-12.05 88.32-12.15 87.64-12.25 87.14-12.25L87.14-12.25Q86.34-12.25 85.67-12.08 84.99-11.9 84.49-11.38 83.99-10.85 83.69-9.85 83.39-8.85 83.39-7.2L83.39-7.2Q83.39-5.85 83.62-5 83.84-4.15 84.29-3.68 84.74-3.2 85.34-3.05 85.94-2.9 86.69-2.9ZM96.14 0L96.14 0 103.64-13.8 105.64-15.25Q105.64-15.25 106.11-16.3 106.59-17.35 107.29-18.85 107.99-20.35 108.64-21.6L108.64-21.6 110.19-24.3Q110.34-24.65 110.59-24.8 110.84-24.95 111.71-24.98 112.59-25 114.69-25L114.69-25 107.34-11.65 105.84-11.15Q105.84-11.15 105.49-10.38 105.14-9.6 104.61-8.38 104.09-7.15 103.44-5.78 102.79-4.4 102.19-3.25L102.19-3.25 100.74-0.8Q100.59-0.4 100.24-0.25 99.89-0.1 98.96-0.05 98.04 0 96.14 0ZM110.44 0L110.44 0 108.59-3.3Q107.94-4.4 107.31-5.75 106.69-7.1 106.11-8.33 105.54-9.55 105.19-10.33 104.84-11.1 104.84-11.1L104.84-11.1 103.94-11.7 97.14-24.35Q96.99-24.65 97.11-24.78 97.24-24.9 98.19-24.95 99.14-25 101.39-25L101.39-25 103.24-21.6Q103.89-20.35 104.59-18.88 105.29-17.4 105.74-16.32 106.19-15.25 106.19-15.25L106.19-15.25 107.69-14.4 114.94-0.95Q115.19-0.5 115.06-0.3 114.94-0.1 113.94-0.05 112.94 0 110.44 0Z" opacity="1" transform="matrix(1,0,0,1,0,0)" fill="#ffffff" class="wordmark-text-0" data-fill-palette-color="primary" id="text-0"></path></svg></g></svg></g><g transform="matrix(1,0,0,1,0,153.63552992664245)"><svg viewBox="0 0 308.11008 69.59825122728543" height="69.59825122728543" width="308.11008"><g transform="matrix(1,0,0,1,0,0)"><svg width="308.11008" viewBox="0.35 -39.65 178.83 40.4" height="69.59825122728543" data-palette-color="#ffffff"><path d="M11.75-35.25Q14.75-35.25 17.05-34.2 19.35-33.15 21.3-31.05L21.3-31.05 18.35-27.65Q16.8-29.05 15.33-29.75 13.85-30.45 12.2-30.45L12.2-30.45Q10.3-30.45 9.2-29.28 8.1-28.1 8.1-26.2L8.1-26.2Q8.1-24.3 9.25-23.1 10.4-21.9 13.75-20.6L13.75-20.6Q18.05-18.85 20.08-16.5 22.1-14.15 22.1-9.85L22.1-9.85Q22.1-6.9 20.75-4.48 19.4-2.05 16.88-0.65 14.35 0.75 11 0.75L11 0.75Q7.55 0.75 5-0.48 2.45-1.7 0.35-3.95L0.35-3.95 3.55-7.45Q5.35-5.85 7-5 8.65-4.15 10.6-4.15L10.6-4.15Q12.9-4.15 14.18-5.58 15.45-7 15.45-9.45L15.45-9.45Q15.45-11.6 14.33-12.98 13.2-14.35 10.15-15.5L10.15-15.5Q5.55-17.35 3.53-19.75 1.5-22.15 1.5-25.75L1.5-25.75Q1.5-28.5 2.83-30.65 4.15-32.8 6.5-34.02 8.85-35.25 11.75-35.25L11.75-35.25ZM35.5-27.15Q40.5-27.15 43.27-23.65 46.05-20.15 46.05-13.25L46.05-13.25Q46.05-6.65 43.25-2.95 40.45 0.75 35.5 0.75L35.5 0.75Q30.55 0.75 27.75-2.88 24.95-6.5 24.95-13.25L24.95-13.25Q24.95-19.95 27.75-23.55 30.55-27.15 35.5-27.15L35.5-27.15ZM35.5-22.5Q33.35-22.5 32.35-20.38 31.35-18.25 31.35-13.25L31.35-13.25Q31.35-8.2 32.35-6.08 33.35-3.95 35.5-3.95L35.5-3.95Q37.65-3.95 38.65-6.08 39.65-8.2 39.65-13.25L39.65-13.25Q39.65-18.3 38.65-20.4 37.65-22.5 35.5-22.5L35.5-22.5ZM56.2 0.75Q53.5 0.75 51.92-0.93 50.35-2.6 50.35-5.4L50.35-5.4 50.35-37.05 56.5-37.7 56.5-5.65Q56.5-5 56.8-4.6 57.1-4.2 57.7-4.2L57.7-4.2Q58.05-4.2 58.37-4.3 58.7-4.4 58.8-4.4L58.8-4.4 60-0.2Q58.3 0.75 56.2 0.75L56.2 0.75ZM81.19-26.45L81.19 0 75.84 0 75.54-3.35Q74.29-1.3 72.74-0.28 71.19 0.75 69.14 0.75L69.14 0.75Q66.24 0.75 64.57-1.3 62.89-3.35 62.89-6.65L62.89-6.65 62.89-26.45 69.04-26.45 69.04-7Q69.04-3.9 71.14-3.9L71.14-3.9Q72.34-3.9 73.29-4.83 74.24-5.75 75.04-7.45L75.04-7.45 75.04-26.45 81.19-26.45ZM98.04-5L100.19-1.2Q97.74 0.75 94.44 0.75L94.44 0.75Q90.99 0.75 89.19-1.23 87.39-3.2 87.39-6.6L87.39-6.6 87.39-22 84.29-22 84.29-26.45 87.39-26.45 87.39-32.3 93.54-33.05 93.54-26.45 98.54-26.45 97.94-22 93.54-22 93.54-6.6Q93.54-4.2 95.59-4.2L95.59-4.2Q96.24-4.2 96.74-4.38 97.24-4.55 98.04-5L98.04-5ZM102.74-26.45L108.89-26.45 108.89 0 102.74 0 102.74-26.45ZM105.79-39.65Q107.44-39.65 108.46-38.6 109.49-37.55 109.49-35.9L109.49-35.9Q109.49-34.3 108.46-33.25 107.44-32.2 105.79-32.2L105.79-32.2Q104.14-32.2 103.11-33.25 102.09-34.3 102.09-35.9L102.09-35.9Q102.09-37.55 103.11-38.6 104.14-39.65 105.79-39.65L105.79-39.65ZM123.99-27.15Q128.99-27.15 131.76-23.65 134.54-20.15 134.54-13.25L134.54-13.25Q134.54-6.65 131.74-2.95 128.94 0.75 123.99 0.75L123.99 0.75Q119.04 0.75 116.24-2.88 113.44-6.5 113.44-13.25L113.44-13.25Q113.44-19.95 116.24-23.55 119.04-27.15 123.99-27.15L123.99-27.15ZM123.99-22.5Q121.84-22.5 120.84-20.38 119.84-18.25 119.84-13.25L119.84-13.25Q119.84-8.2 120.84-6.08 121.84-3.95 123.99-3.95L123.99-3.95Q126.14-3.95 127.14-6.08 128.14-8.2 128.14-13.25L128.14-13.25Q128.14-18.3 127.14-20.4 126.14-22.5 123.99-22.5L123.99-22.5ZM151.43-27.15Q154.28-27.15 155.93-25.1 157.58-23.05 157.58-19.6L157.58-19.6 157.58 0 151.43 0 151.43-18.9Q151.43-20.8 150.91-21.63 150.38-22.45 149.38-22.45L149.38-22.45Q147.28-22.45 145.23-18.5L145.23-18.5 145.23 0 139.08 0 139.08-26.45 144.43-26.45 144.88-23Q146.23-25.1 147.76-26.13 149.28-27.15 151.43-27.15L151.43-27.15ZM170.48-27.15Q175.18-27.15 178.43-24.05L178.43-24.05 176.08-20.7Q174.68-21.7 173.43-22.2 172.18-22.7 170.88-22.7L170.88-22.7Q169.43-22.7 168.61-21.93 167.78-21.15 167.78-19.8L167.78-19.8Q167.78-18.45 168.71-17.63 169.63-16.8 172.43-15.7L172.43-15.7Q175.88-14.35 177.53-12.5 179.18-10.65 179.18-7.55L179.18-7.55Q179.18-3.7 176.48-1.48 173.78 0.75 169.63 0.75L169.63 0.75Q166.93 0.75 164.66-0.23 162.38-1.2 160.68-2.95L160.68-2.95 163.68-6.25Q166.48-3.8 169.38-3.8L169.38-3.8Q171.03-3.8 171.98-4.67 172.93-5.55 172.93-7.1L172.93-7.1Q172.93-8.25 172.53-8.97 172.13-9.7 171.13-10.33 170.13-10.95 168.13-11.7L168.13-11.7Q164.68-13.05 163.21-14.85 161.73-16.65 161.73-19.45L161.73-19.45Q161.73-22.8 164.11-24.98 166.48-27.15 170.48-27.15L170.48-27.15Z" opacity="1" transform="matrix(1,0,0,1,0,0)" fill="#ffffff" class="slogan-text-1" data-fill-palette-color="secondary" id="text-1"></path></svg></g></svg></g></svg></g></svg></g><g><svg viewBox="0 0 244.43136 244.43136" height="244.43136" width="244.43136"><g><svg xmlns="http://www.w3.org/2000/svg" data-name="Layer 1" viewBox="20 20 60 60" x="0" y="0" height="244.43136" width="244.43136" class="icon-icon-0" data-fill-palette-color="accent" id="icon-0"><path d="M80 27a7 7 0 0 0-7-7H64v6h9a1 1 0 0 1 1 1v9h6Z" fill="#ffffff" data-fill-palette-color="accent"></path><path d="M74 73a1 1 0 0 1-1 1H64v6h9a7 7 0 0 0 7-7V64H74Z" fill="#ffffff" data-fill-palette-color="accent"></path><path d="M20 73a7 7 0 0 0 7 7h9V74H27a1 1 0 0 1-1-1V64H20Z" fill="#ffffff" data-fill-palette-color="accent"></path><path d="M26 27a1 1 0 0 1 1-1h9V20H27a7 7 0 0 0-7 7v9h6Z" fill="#ffffff" data-fill-palette-color="accent"></path><path d="M47 29v7.33a14 14 0 0 0-7.32 4.24L33.31 36.9l-3 5.2 6.35 3.66a13.95 13.95 0 0 0 0 8.48L30.31 57.9l3 5.2 6.36-3.67A14 14 0 0 0 47 63.67V71h6V63.67a14 14 0 0 0 7.32-4.24l6.36 3.67 3-5.2-6.35-3.66a13.95 13.95 0 0 0 0-8.48l6.35-3.66-3-5.2-6.36 3.67A14 14 0 0 0 53 36.33V29ZM58 50a8 8 0 1 1-8-8A8 8 0 0 1 58 50Z" fill="#ffffff" data-fill-palette-color="accent"></path></svg></g></svg></g></svg></g><defs></defs></svg><rect width="395.52" height="144.44698426712046" fill="none" stroke="none" visibility="hidden"></rect></g></svg></g></svg>