<svg xmlns="http://www.w3.org/2000/svg" version="1.1" xmlns:xlink="http://www.w3.org/1999/xlink" xmlns:svgjs="http://svgjs.dev/svgjs" width="2000" height="727" viewBox="0 0 2000 727"><g transform="matrix(1,0,0,1,-1.2121212121210192,1.1283248687381047)"><svg viewBox="0 0 396 144" data-background-color="#a437db" preserveAspectRatio="xMidYMid meet" height="727" width="2000" xmlns="http://www.w3.org/2000/svg" xmlns:xlink="http://www.w3.org/1999/xlink"><g id="tight-bounds" transform="matrix(1,0,0,1,0.23999999999995225,-0.223492133560228)"><svg viewBox="0 0 395.52 144.44698426712046" height="144.44698426712046" width="395.52"><g><svg viewBox="0 0 669.2939419795563 244.43136" height="144.44698426712046" width="395.52"><g transform="matrix(1,0,0,1,273.7739419795563,28.50384769145998)"><svg viewBox="0 0 395.52 187.42366461708005" height="187.42366461708005" width="395.52"><g id="textblocktransform"><svg viewBox="0 0 395.52 187.42366461708005" height="187.42366461708005" width="395.52" id="textblock"><g><svg viewBox="0 0 395.52 124.29294794708613" height="124.29294794708613" width="395.52"><g transform="matrix(1,0,0,1,0,0)"><svg width="395.52" viewBox="2.15 -35 112.95447368421051 35.5" height="124.29294794708613" data-palette-color="#ffffff"><path d="M12.75-7.7L11-7.7 8.4-15.7Q8.25-16.1 7.93-17.3 7.6-18.5 7.13-20.13 6.65-21.75 6.18-23.45 5.7-25.15 5.3-26.65 4.9-28.15 4.63-29.08 4.35-30 4.35-30L4.35-30 5.95-35 10.7-19.85Q10.95-19.1 11.23-18.15 11.5-17.2 11.73-16.32 11.95-15.45 12.13-14.88 12.3-14.3 12.3-14.3L12.3-14.3Q12.3-14.3 12.43-14.88 12.55-15.45 12.78-16.32 13-17.2 13.25-18.1 13.5-19 13.75-19.75L13.75-19.75 18.15-34.2 19.95-29.8Q19.95-29.8 19.7-28.9 19.45-28 19.05-26.55 18.65-25.1 18.18-23.4 17.7-21.7 17.25-20.1 16.8-18.5 16.45-17.32 16.1-16.15 15.95-15.7L15.95-15.7 13.3-8.1Q13.15-7.7 12.75-7.7L12.75-7.7ZM2.15 0L2.15 0 2.15-34.2Q2.15-34.75 2.4-34.88 2.65-35 3-35L3-35 5.95-35 6.2-28.6 5.15-26.95Q5.15-26.95 5.23-26.25 5.3-25.55 5.38-24.38 5.45-23.2 5.58-21.68 5.7-20.15 5.83-18.53 5.95-16.9 6.03-15.3 6.1-13.7 6.1-12.4L6.1-12.4 6.2-0.8Q6.2-0.4 5.98-0.25 5.75-0.1 4.9-0.05 4.05 0 2.15 0ZM18.1 0L18.1 0 18.3-12.2Q18.3-13.5 18.38-15.1 18.45-16.7 18.57-18.4 18.7-20.1 18.8-21.68 18.9-23.25 19-24.5 19.1-25.75 19.15-26.5 19.2-27.25 19.2-27.25L19.2-27.25 18.15-28.2 18.15-34.2Q18.3-34.55 18.43-34.77 18.55-35 18.95-35L18.95-35Q20.6-35 21.3-35 22-35 22.13-35 22.25-35 22.25-35L22.25-35 22.25-0.8Q22.25-0.4 22.08-0.25 21.9-0.1 21.05-0.05 20.2 0 18.1 0ZM26.75 0L26.75 0 26.75-23.15Q26.75-24.1 27.1-24.48 27.45-24.85 28.35-24.93 29.25-25 30.9-25L30.9-25 30.9-0.8Q30.9-0.4 30.72-0.25 30.55-0.1 29.7-0.05 28.85 0 26.75 0ZM28.7-28.45L28.7-28.45Q27.75-28.5 27.2-29.18 26.65-29.85 26.65-31.6L26.65-31.6Q26.7-32.95 27.25-33.77 27.8-34.6 29-34.6L29-34.6Q30.15-34.6 30.6-33.95 31.05-33.3 31-31.7L31-31.7Q31-30.2 30.42-29.33 29.85-28.45 28.7-28.45ZM36.1 0L36.1 0 36.1-23.8Q37.1-24.25 38.45-24.63 39.8-25 41.25-25.25 42.7-25.5 44.05-25.5L44.05-25.5Q46.65-25.5 48.2-24.83 49.75-24.15 50.4-22.7 51.05-21.25 51.05-18.8L51.05-18.8 51.05-0.8Q51.05-0.4 50.85-0.25 50.65-0.1 49.8-0.05 48.95 0 46.85 0L46.85 0 46.85-17.6Q46.85-19.95 46.3-20.95 45.75-21.95 43.9-21.95L43.9-21.95Q43.05-21.95 42-21.75 40.95-21.55 40.15-21.05L40.15-21.05 40.15-0.8Q40.15-0.4 39.97-0.25 39.8-0.1 38.95-0.05 38.1 0 36.1 0ZM65.99-7.7L64.24-7.7 61.64-15.7Q61.49-16.1 61.17-17.3 60.84-18.5 60.37-20.13 59.89-21.75 59.42-23.45 58.94-25.15 58.54-26.65 58.14-28.15 57.87-29.08 57.59-30 57.59-30L57.59-30 59.19-35 63.94-19.85Q64.19-19.1 64.47-18.15 64.74-17.2 64.97-16.32 65.19-15.45 65.37-14.88 65.54-14.3 65.54-14.3L65.54-14.3Q65.54-14.3 65.67-14.88 65.79-15.45 66.02-16.32 66.24-17.2 66.49-18.1 66.74-19 66.99-19.75L66.99-19.75 71.39-34.2 73.19-29.8Q73.19-29.8 72.94-28.9 72.69-28 72.29-26.55 71.89-25.1 71.42-23.4 70.94-21.7 70.49-20.1 70.04-18.5 69.69-17.32 69.34-16.15 69.19-15.7L69.19-15.7 66.54-8.1Q66.39-7.7 65.99-7.7L65.99-7.7ZM55.39 0L55.39 0 55.39-34.2Q55.39-34.75 55.64-34.88 55.89-35 56.24-35L56.24-35 59.19-35 59.44-28.6 58.39-26.95Q58.39-26.95 58.47-26.25 58.54-25.55 58.62-24.38 58.69-23.2 58.82-21.68 58.94-20.15 59.07-18.53 59.19-16.9 59.27-15.3 59.34-13.7 59.34-12.4L59.34-12.4 59.44-0.8Q59.44-0.4 59.22-0.25 58.99-0.1 58.14-0.05 57.29 0 55.39 0ZM71.34 0L71.34 0 71.54-12.2Q71.54-13.5 71.62-15.1 71.69-16.7 71.82-18.4 71.94-20.1 72.04-21.68 72.14-23.25 72.24-24.5 72.34-25.75 72.39-26.5 72.44-27.25 72.44-27.25L72.44-27.25 71.39-28.2 71.39-34.2Q71.54-34.55 71.67-34.77 71.79-35 72.19-35L72.19-35Q73.84-35 74.54-35 75.24-35 75.37-35 75.49-35 75.49-35L75.49-35 75.49-0.8Q75.49-0.4 75.32-0.25 75.14-0.1 74.29-0.05 73.44 0 71.34 0ZM86.29 0.5L86.29 0.5Q84.89 0.5 83.62 0.28 82.34 0.05 81.34-0.73 80.34-1.5 79.74-3 79.14-4.5 79.14-7.1L79.14-7.1Q79.14-9.7 79.69-11.33 80.24-12.95 81.19-13.83 82.14-14.7 83.34-15 84.54-15.3 85.79-15.3L85.79-15.3Q86.59-15.3 87.67-15.15 88.74-15 89.49-14.65L89.49-14.65Q89.49-14.65 89.49-15.35 89.49-16.05 89.49-16.98 89.49-17.9 89.49-18.6L89.49-18.6Q89.49-19.8 89.12-20.43 88.74-21.05 88.07-21.33 87.39-21.6 86.39-21.6L86.39-21.6Q84.44-21.6 82.64-21.25 80.84-20.9 79.74-20.45L79.74-20.45Q79.39-21.05 79.29-21.68 79.19-22.3 79.19-22.8L79.19-22.8Q79.19-23.15 79.32-23.55 79.44-23.95 79.74-24.15L79.74-24.15Q80.39-24.55 82.44-25.03 84.49-25.5 87.34-25.5L87.34-25.5Q90.59-25.5 92.07-24.15 93.54-22.8 93.54-19.4L93.54-19.4 93.54-16.75Q93.54-13.9 93.52-11.03 93.49-8.15 93.44-5.63 93.39-3.1 93.24-1.2L93.24-1.2Q92.24-0.6 90.49-0.05 88.74 0.5 86.29 0.5ZM86.69-2.9L86.69-2.9Q87.49-2.9 88.24-3.15 88.99-3.4 89.29-3.75L89.29-3.75Q89.39-4.55 89.42-5.95 89.44-7.35 89.47-8.9 89.49-10.45 89.49-11.8L89.49-11.8Q88.99-12.05 88.32-12.15 87.64-12.25 87.14-12.25L87.14-12.25Q86.34-12.25 85.67-12.08 84.99-11.9 84.49-11.38 83.99-10.85 83.69-9.85 83.39-8.85 83.39-7.2L83.39-7.2Q83.39-5.85 83.62-5 83.84-4.15 84.29-3.68 84.74-3.2 85.34-3.05 85.94-2.9 86.69-2.9ZM96.14 0L96.14 0 103.64-13.8 105.64-15.25Q105.64-15.25 106.11-16.3 106.59-17.35 107.29-18.85 107.99-20.35 108.64-21.6L108.64-21.6 110.19-24.3Q110.34-24.65 110.59-24.8 110.84-24.95 111.71-24.98 112.59-25 114.69-25L114.69-25 107.34-11.65 105.84-11.15Q105.84-11.15 105.49-10.38 105.14-9.6 104.61-8.38 104.09-7.15 103.44-5.78 102.79-4.4 102.19-3.25L102.19-3.25 100.74-0.8Q100.59-0.4 100.24-0.25 99.89-0.1 98.96-0.05 98.04 0 96.14 0ZM110.44 0L110.44 0 108.59-3.3Q107.94-4.4 107.31-5.75 106.69-7.1 106.11-8.33 105.54-9.55 105.19-10.33 104.84-11.1 104.84-11.1L104.84-11.1 103.94-11.7 97.14-24.35Q96.99-24.65 97.11-24.78 97.24-24.9 98.19-24.95 99.14-25 101.39-25L101.39-25 103.24-21.6Q103.89-20.35 104.59-18.88 105.29-17.4 105.74-16.32 106.19-15.25 106.19-15.25L106.19-15.25 107.69-14.4 114.94-0.95Q115.19-0.5 115.06-0.3 114.94-0.1 113.94-0.05 112.94 0 110.44 0Z" opacity="1" transform="matrix(1,0,0,1,0,0)" fill="#ffffff" class="wordmark-text-0" data-fill-palette-color="primary" id="text-0"></path></svg></g></svg></g><g transform="matrix(1,0,0,1,0,153.63552992664245)"><svg viewBox="0 0 232.209792 33.7881346904376" height="33.7881346904376" width="232.209792"><g transform="matrix(1,0,0,1,0,0)"><svg width="232.209792" viewBox="0.4 -39.65 277.62 40.4" height="33.7881346904376" data-palette-color="#ffffff"><path d="M0.4-34.55L21.95-34.55 21.25-29.55 14.15-29.55 14.15 0 7.8 0 7.8-29.55 0.4-29.55 0.4-34.55ZM43.7-13.85Q43.7-13.4 43.55-11.3L43.55-11.3 29.9-11.3Q30.1-7.2 31.32-5.58 32.55-3.95 34.8-3.95L34.8-3.95Q36.35-3.95 37.6-4.48 38.85-5 40.3-6.15L40.3-6.15 42.85-2.65Q39.35 0.75 34.45 0.75L34.45 0.75Q29.25 0.75 26.47-2.85 23.7-6.45 23.7-13L23.7-13Q23.7-19.55 26.35-23.35 29-27.15 33.85-27.15L33.85-27.15Q38.5-27.15 41.1-23.78 43.7-20.4 43.7-13.85L43.7-13.85ZM37.7-15.3L37.7-15.65Q37.7-19.4 36.8-21.13 35.9-22.85 33.9-22.85L33.9-22.85Q32.05-22.85 31.07-21.18 30.1-19.5 29.9-15.3L29.9-15.3 37.7-15.3ZM57.5-27.15Q59.65-27.15 61.4-26.43 63.15-25.7 64.75-24.15L64.75-24.15 62.09-20.65Q61-21.55 60.02-21.98 59.05-22.4 57.9-22.4L57.9-22.4Q55.65-22.4 54.5-20.28 53.35-18.15 53.35-13.1L53.35-13.1Q53.35-8.2 54.52-6.2 55.7-4.2 57.9-4.2L57.9-4.2Q59-4.2 59.9-4.6 60.8-5 62-5.85L62-5.85 64.75-2.3Q61.55 0.75 57.6 0.75L57.6 0.75Q52.5 0.75 49.67-2.73 46.85-6.2 46.85-13L46.85-13Q46.85-17.4 48.15-20.6 49.45-23.8 51.87-25.48 54.3-27.15 57.5-27.15L57.5-27.15ZM80.14-27.15Q82.99-27.15 84.64-25.1 86.29-23.05 86.29-19.6L86.29-19.6 86.29 0 80.14 0 80.14-18.9Q80.14-20.8 79.62-21.63 79.09-22.45 78.09-22.45L78.09-22.45Q75.99-22.45 73.94-18.5L73.94-18.5 73.94 0 67.79 0 67.79-37 73.94-37.65 73.94-23.3Q75.19-25.25 76.67-26.2 78.14-27.15 80.14-27.15L80.14-27.15ZM110.59-35.25Q113.59-35.25 115.89-34.2 118.19-33.15 120.14-31.05L120.14-31.05 117.19-27.65Q115.64-29.05 114.16-29.75 112.69-30.45 111.04-30.45L111.04-30.45Q109.14-30.45 108.04-29.28 106.94-28.1 106.94-26.2L106.94-26.2Q106.94-24.3 108.09-23.1 109.24-21.9 112.59-20.6L112.59-20.6Q116.89-18.85 118.91-16.5 120.94-14.15 120.94-9.85L120.94-9.85Q120.94-6.9 119.59-4.48 118.24-2.05 115.71-0.65 113.19 0.75 109.84 0.75L109.84 0.75Q106.39 0.75 103.84-0.48 101.29-1.7 99.19-3.95L99.19-3.95 102.39-7.45Q104.19-5.85 105.84-5 107.49-4.15 109.44-4.15L109.44-4.15Q111.74-4.15 113.01-5.58 114.29-7 114.29-9.45L114.29-9.45Q114.29-11.6 113.16-12.98 112.04-14.35 108.99-15.5L108.99-15.5Q104.39-17.35 102.36-19.75 100.34-22.15 100.34-25.75L100.34-25.75Q100.34-28.5 101.66-30.65 102.99-32.8 105.34-34.02 107.69-35.25 110.59-35.25L110.59-35.25ZM134.34-27.15Q139.34-27.15 142.11-23.65 144.89-20.15 144.89-13.25L144.89-13.25Q144.89-6.65 142.09-2.95 139.28 0.75 134.34 0.75L134.34 0.75Q129.39 0.75 126.59-2.88 123.79-6.5 123.79-13.25L123.79-13.25Q123.79-19.95 126.59-23.55 129.39-27.15 134.34-27.15L134.34-27.15ZM134.34-22.5Q132.19-22.5 131.19-20.38 130.19-18.25 130.19-13.25L130.19-13.25Q130.19-8.2 131.19-6.08 132.19-3.95 134.34-3.95L134.34-3.95Q136.49-3.95 137.49-6.08 138.49-8.2 138.49-13.25L138.49-13.25Q138.49-18.3 137.49-20.4 136.49-22.5 134.34-22.5L134.34-22.5ZM155.03 0.75Q152.33 0.75 150.76-0.93 149.18-2.6 149.18-5.4L149.18-5.4 149.18-37.05 155.33-37.7 155.33-5.65Q155.33-5 155.63-4.6 155.93-4.2 156.53-4.2L156.53-4.2Q156.88-4.2 157.21-4.3 157.53-4.4 157.63-4.4L157.63-4.4 158.83-0.2Q157.13 0.75 155.03 0.75L155.03 0.75ZM180.03-26.45L180.03 0 174.68 0 174.38-3.35Q173.13-1.3 171.58-0.28 170.03 0.75 167.98 0.75L167.98 0.75Q165.08 0.75 163.41-1.3 161.73-3.35 161.73-6.65L161.73-6.65 161.73-26.45 167.88-26.45 167.88-7Q167.88-3.9 169.98-3.9L169.98-3.9Q171.18-3.9 172.13-4.83 173.08-5.75 173.88-7.45L173.88-7.45 173.88-26.45 180.03-26.45ZM196.88-5L199.03-1.2Q196.58 0.75 193.28 0.75L193.28 0.75Q189.83 0.75 188.03-1.23 186.23-3.2 186.23-6.6L186.23-6.6 186.23-22 183.13-22 183.13-26.45 186.23-26.45 186.23-32.3 192.38-33.05 192.38-26.45 197.38-26.45 196.78-22 192.38-22 192.38-6.6Q192.38-4.2 194.43-4.2L194.43-4.2Q195.08-4.2 195.58-4.38 196.08-4.55 196.88-5L196.88-5ZM201.57-26.45L207.72-26.45 207.72 0 201.57 0 201.57-26.45ZM204.63-39.65Q206.28-39.65 207.3-38.6 208.32-37.55 208.32-35.9L208.32-35.9Q208.32-34.3 207.3-33.25 206.28-32.2 204.63-32.2L204.63-32.2Q202.97-32.2 201.95-33.25 200.92-34.3 200.92-35.9L200.92-35.9Q200.92-37.55 201.95-38.6 202.97-39.65 204.63-39.65L204.63-39.65ZM222.82-27.15Q227.82-27.15 230.6-23.65 233.37-20.15 233.37-13.25L233.37-13.25Q233.37-6.65 230.57-2.95 227.77 0.75 222.82 0.75L222.82 0.75Q217.87 0.75 215.07-2.88 212.27-6.5 212.27-13.25L212.27-13.25Q212.27-19.95 215.07-23.55 217.87-27.15 222.82-27.15L222.82-27.15ZM222.82-22.5Q220.67-22.5 219.67-20.38 218.67-18.25 218.67-13.25L218.67-13.25Q218.67-8.2 219.67-6.08 220.67-3.95 222.82-3.95L222.82-3.95Q224.97-3.95 225.97-6.08 226.97-8.2 226.97-13.25L226.97-13.25Q226.97-18.3 225.97-20.4 224.97-22.5 222.82-22.5L222.82-22.5ZM250.27-27.15Q253.12-27.15 254.77-25.1 256.42-23.05 256.42-19.6L256.42-19.6 256.42 0 250.27 0 250.27-18.9Q250.27-20.8 249.75-21.63 249.22-22.45 248.22-22.45L248.22-22.45Q246.12-22.45 244.07-18.5L244.07-18.5 244.07 0 237.92 0 237.92-26.45 243.27-26.45 243.72-23Q245.07-25.1 246.59-26.13 248.12-27.15 250.27-27.15L250.27-27.15ZM269.32-27.15Q274.02-27.15 277.27-24.05L277.27-24.05 274.92-20.7Q273.52-21.7 272.27-22.2 271.02-22.7 269.72-22.7L269.72-22.7Q268.27-22.7 267.44-21.93 266.62-21.15 266.62-19.8L266.62-19.8Q266.62-18.45 267.54-17.63 268.47-16.8 271.27-15.7L271.27-15.7Q274.72-14.35 276.37-12.5 278.02-10.65 278.02-7.55L278.02-7.55Q278.02-3.7 275.32-1.48 272.62 0.75 268.47 0.75L268.47 0.75Q265.77 0.75 263.49-0.23 261.22-1.2 259.52-2.95L259.52-2.95 262.52-6.25Q265.32-3.8 268.22-3.8L268.22-3.8Q269.87-3.8 270.82-4.67 271.77-5.55 271.77-7.1L271.77-7.1Q271.77-8.25 271.37-8.97 270.97-9.7 269.97-10.33 268.97-10.95 266.97-11.7L266.97-11.7Q263.52-13.05 262.04-14.85 260.57-16.65 260.57-19.45L260.57-19.45Q260.57-22.8 262.94-24.98 265.32-27.15 269.32-27.15L269.32-27.15Z" opacity="1" transform="matrix(1,0,0,1,0,0)" fill="#ffffff" class="slogan-text-1" data-fill-palette-color="secondary" id="text-1"></path></svg></g></svg></g></svg></g></svg></g><g><svg viewBox="0 0 244.43136 244.43136" height="244.43136" width="244.43136"><g><svg xmlns="http://www.w3.org/2000/svg" data-name="Layer 1" viewBox="20 20 60 60" x="0" y="0" height="244.43136" width="244.43136" class="icon-icon-0" data-fill-palette-color="accent" id="icon-0"><path d="M80 27a7 7 0 0 0-7-7H64v6h9a1 1 0 0 1 1 1v9h6Z" fill="#ffffff" data-fill-palette-color="accent"></path><path d="M74 73a1 1 0 0 1-1 1H64v6h9a7 7 0 0 0 7-7V64H74Z" fill="#ffffff" data-fill-palette-color="accent"></path><path d="M20 73a7 7 0 0 0 7 7h9V74H27a1 1 0 0 1-1-1V64H20Z" fill="#ffffff" data-fill-palette-color="accent"></path><path d="M26 27a1 1 0 0 1 1-1h9V20H27a7 7 0 0 0-7 7v9h6Z" fill="#ffffff" data-fill-palette-color="accent"></path><path d="M47 29v7.33a14 14 0 0 0-7.32 4.24L33.31 36.9l-3 5.2 6.35 3.66a13.95 13.95 0 0 0 0 8.48L30.31 57.9l3 5.2 6.36-3.67A14 14 0 0 0 47 63.67V71h6V63.67a14 14 0 0 0 7.32-4.24l6.36 3.67 3-5.2-6.35-3.66a13.95 13.95 0 0 0 0-8.48l6.35-3.66-3-5.2-6.36 3.67A14 14 0 0 0 53 36.33V29ZM58 50a8 8 0 1 1-8-8A8 8 0 0 1 58 50Z" fill="#ffffff" data-fill-palette-color="accent"></path></svg></g></svg></g></svg></g><defs></defs></svg><rect width="395.52" height="144.44698426712046" fill="none" stroke="none" visibility="hidden"></rect></g></svg></g></svg>