<?xml version="1.0" encoding="UTF-8"?>
<!DOCTYPE svg PUBLIC "-//W3C//DTD SVG 1.1//EN" "http://www.w3.org/Graphics/SVG/1.1/DTD/svg11.dtd">
<!-- Creator: CorelDRAW -->
<svg xmlns="http://www.w3.org/2000/svg" xml:space="preserve" width="100%" height="100%" version="1.1" shape-rendering="geometricPrecision" text-rendering="geometricPrecision" image-rendering="optimizeQuality" fill-rule="evenodd" clip-rule="evenodd"
viewBox="0 0 16782.22 4854.91"
 xmlns:xlink="http://www.w3.org/1999/xlink"
 xmlns:xodm="http://www.corel.com/coreldraw/odm/2003">
 <g id="Ebene_x0020_1">
  <metadata id="CorelCorpID_0Corel-Layer"/>
  <g id="_2589095861120">
   <polygon fill="white" fill-rule="nonzero" points="8855.28,617.19 8360.41,2454.32 7839.43,2454.32 7506.71,1257.36 7185.36,2454.32 6661.42,2454.32 6166.54,617.19 6661,617.19 6943.19,1881.95 7282.22,617.19 7754.77,617.19 8080.34,1881.95 8376.42,617.19 "/>
   <polygon id="_1" fill="white" fill-rule="nonzero" points="10501.62,2454.32 9172.42,2454.32 9172.42,617.19 10501.62,617.19 10501.62,973.5 9647.5,973.5 9647.5,1289.37 10440.97,1289.37 10440.97,1645.68 9647.5,1645.68 9647.5,2098.01 10501.62,2098.01 "/>
   <path id="_2" fill="white" fill-rule="nonzero" d="M12470.57 1891.22c0,88.87 -17.68,168.47 -53.48,238.38 -35.8,69.91 -85.08,128.04 -147.41,173.94 -72.44,54.33 -152.04,93.08 -238.8,116.24 -86.76,23.17 -197.11,34.54 -330.2,34.54l-801.9 0 0 -1837.13 713.46 0c148.25,0 256.49,5.06 325.56,14.74 68.65,10.11 136.46,31.59 204.26,65.28 69.92,35.38 121.72,82.97 155.84,142.36 34.11,59.8 51.38,127.61 51.38,204.26 0,88.87 -23.17,167.21 -69.91,235.01 -46.75,67.81 -112.88,120.46 -198.37,158.36l0 9.69c119.61,24.01 214.37,73.28 284.7,148.25 69.92,74.97 104.87,173.52 104.87,296.08zm-606.48 -755.15c0,-30.33 -7.58,-61.07 -22.74,-91.39 -15.16,-30.33 -41.69,-53.07 -80.02,-67.81 -34.54,-13.48 -77.07,-20.64 -128.46,-21.9 -50.96,-1.27 -122.56,-1.69 -214.79,-1.69l-44.22 0 0 389.16 73.7 0c74.13,0 137.3,-1.26 189.95,-3.79 52.22,-2.53 93.5,-10.53 123.82,-24.85 42.12,-18.53 69.91,-43.38 82.97,-73.28 13.06,-29.91 19.79,-64.86 19.79,-104.45zm113.72 747.99c0,-58.96 -11.37,-104.03 -33.69,-136.04 -22.33,-31.58 -60.65,-55.59 -114.14,-71.17 -36.64,-10.53 -87.18,-16.43 -151.62,-17.27 -64.44,-0.84 -131.82,-1.26 -201.74,-1.26l-102.76 0 0 459.91 34.11 0c132.25,0 226.59,-0.42 283.87,-1.26 56.86,-0.85 109.5,-11.38 157.51,-32.43 48.86,-20.64 82.55,-48.02 101.08,-82.13 18.11,-34.54 27.38,-73.71 27.38,-118.35z"/>
   <polygon fill="white" fill-rule="nonzero" points="7366.23,4275.95 6526.78,4275.95 6526.78,2999.21 7366.23,2999.21 7366.23,3150.24 6697.13,3150.24 6697.13,3499.72 7366.23,3499.72 7366.23,3650.75 6697.13,3650.75 6697.13,4124.92 7366.23,4124.92 "/>
   <path id="_1_0" fill="white" fill-rule="nonzero" d="M8425.79 4275.95l-161.57 0 0 -545.29c0,-43.91 -2.64,-85.18 -7.61,-123.81 -5.27,-38.64 -14.64,-68.78 -28.39,-90.44 -14.35,-24 -35.13,-41.86 -62.06,-53.57 -26.92,-11.7 -61.75,-17.56 -104.78,-17.56 -43.9,0 -90.15,10.83 -138.15,32.49 -48.3,21.66 -94.25,49.47 -138.45,83.13l0 715.05 -161.56 0 0 -957.11 161.56 0 0 106.54c50.35,-41.86 102.45,-74.35 156.3,-97.76 53.86,-23.42 109.18,-35.13 165.96,-35.13 103.61,0 182.64,31.03 237.08,93.37 54.44,62.35 81.67,151.91 81.67,268.99l0 621.1z"/>
   <path id="_2_1" fill="white" fill-rule="nonzero" d="M9231.57 4267.75c-30.15,8.2 -63.22,14.64 -98.93,19.91 -35.71,4.97 -67.61,7.61 -95.42,7.61 -97.76,0 -172.1,-26.34 -222.74,-79.03 -50.93,-52.39 -76.39,-136.69 -76.39,-252.89l0 -509.29 -108.88 0 0 -135.22 108.88 0 0 -275.72 161.57 0 0 275.72 331.91 0 0 135.22 -331.91 0 0 437c0,50.34 1.17,89.85 3.51,118.24 2.05,28.4 10.24,54.74 24,79.33 12.29,22.83 29.56,39.8 51.51,50.34 21.96,10.54 55.62,15.8 100.69,15.8 26.05,0 53.56,-4.09 81.95,-12 28.69,-7.9 49.18,-14.34 61.76,-19.61l8.49 0 0 144.59z"/>
   <polygon id="_3" fill="white" fill-rule="nonzero" points="10632.99,3318.84 10383.33,4275.95 10234.05,4275.95 9987.6,3538.07 9742.91,4275.95 9594.51,4275.95 9342.21,3318.84 9509.34,3318.84 9686.42,4059.94 9925.84,3318.84 10058.73,3318.84 10304.3,4059.94 10471.43,3318.84 "/>
   <path id="_4" fill="white" fill-rule="nonzero" d="M11035.74 3157.27l-182.64 0 0 -166.84 182.64 0 0 166.84zm-10.54 1118.68l-161.56 0 0 -957.11 161.56 0 0 957.11z"/>
   <path id="_5" fill="white" fill-rule="nonzero" d="M12054.91 4215.95c-53.57,25.46 -104.79,45.37 -153.08,59.71 -48,14.34 -99.52,21.36 -153.67,21.36 -69.07,0 -132.59,-10.24 -190.25,-30.44 -57.66,-20.19 -107.12,-50.93 -148.1,-92.2 -41.86,-40.97 -74.05,-93.07 -96.88,-156 -22.83,-62.64 -34.25,-136.1 -34.25,-220.11 0,-156.59 43.03,-279.52 129.08,-368.5 85.76,-89.27 199.32,-133.76 340.4,-133.76 54.74,0 108.59,7.61 161.57,23.12 52.69,15.22 101.27,34.25 145.18,56.49l0 178.54 -8.49 0c-49.17,-37.75 -99.81,-66.73 -152.2,-87.22 -52.39,-20.19 -103.32,-30.44 -153.08,-30.44 -91.32,0 -163.62,30.73 -216.3,91.91 -52.98,61.17 -79.32,151.32 -79.32,269.86 0,115.03 25.75,203.72 77.56,265.48 51.81,61.75 124.4,92.78 218.06,92.78 32.78,0 65.86,-4.1 99.52,-12.59 33.66,-8.48 64.1,-19.61 90.73,-33.07 23.42,-12 45.66,-24.59 66.15,-37.76 20.49,-13.17 36.88,-24.58 48.88,-34.24l8.49 0 0 177.08z"/>
   <polygon id="_6" fill="white" fill-rule="nonzero" points="13131.44,4275.95 12918.06,4275.95 12532.58,3857.69 12428.97,3956.33 12428.97,4275.95 12267.4,4275.95 12267.4,2941.26 12428.97,2941.26 12428.97,3798.27 12894.65,3318.84 13098.07,3318.84 12652.59,3761.1 "/>
   <polygon id="_7" fill="white" fill-rule="nonzero" points="13461.3,4275.95 13299.74,4275.95 13299.74,2941.26 13461.3,2941.26 "/>
   <path id="_8" fill="white" fill-rule="nonzero" d="M14577.06 4275.95l-161.57 0 0 -106.54c-54.44,43.03 -106.54,75.81 -156.3,98.64 -50.05,22.83 -104.78,34.24 -165.08,34.24 -100.68,0 -179.42,-30.73 -235.32,-92.2 -56.2,-61.17 -84.3,-151.32 -84.3,-270.15l0 -621.1 161.57 0 0 545.29c0,48.59 2.34,90.15 6.73,124.69 4.68,34.53 14.34,64.1 29.27,88.68 15.51,25.17 35.71,43.32 60.29,54.74 24.59,11.41 60.3,17.27 107.42,17.27 41.86,0 87.52,-10.83 136.99,-32.49 49.46,-21.66 95.71,-49.47 138.73,-83.13l0 -715.05 161.57 0 0 957.11z"/>
   <path id="_9" fill="white" fill-rule="nonzero" d="M15695.45 4275.95l-161.57 0 0 -545.29c0,-43.91 -2.64,-85.18 -7.61,-123.81 -5.27,-38.64 -14.64,-68.78 -28.39,-90.44 -14.35,-24 -35.13,-41.86 -62.06,-53.57 -26.92,-11.7 -61.75,-17.56 -104.78,-17.56 -43.9,0 -90.15,10.83 -138.15,32.49 -48.3,21.66 -94.25,49.47 -138.45,83.13l0 715.05 -161.56 0 0 -957.11 161.56 0 0 106.54c50.35,-41.86 102.45,-74.35 156.3,-97.76 53.86,-23.42 109.18,-35.13 165.96,-35.13 103.61,0 182.64,31.03 237.08,93.37 54.44,62.35 81.67,151.91 81.67,268.99l0 621.1z"/>
   <path id="_10" fill="white" fill-rule="nonzero" d="M16782.22 4166.77c0,162.16 -36.88,280.99 -110.93,357.09 -74.05,75.81 -187.62,113.86 -341.29,113.86 -50.92,0 -100.68,-3.51 -149.27,-10.83 -48.29,-7.02 -96,-17.27 -143.13,-30.15l0 -164.49 8.49 0c26.34,9.95 68.2,22.54 125.57,37.46 57.37,14.93 114.73,22.25 172.1,22.25 55.03,0 100.69,-6.44 136.69,-19.61 36,-13.17 64.1,-31.32 84.3,-54.44 20.19,-22.25 34.53,-48.88 43.02,-80.2 8.49,-31.03 12.88,-66.15 12.88,-104.79l0 -86.63c-48.59,38.63 -95.12,67.61 -139.61,86.93 -44.49,19.02 -100.98,28.68 -169.77,28.68 -114.44,0 -205.47,-41.27 -272.79,-123.81 -67.32,-82.54 -100.98,-199.03 -100.98,-349.18 0,-82.54 11.71,-153.38 34.83,-213.09 23.12,-59.71 54.74,-111.22 94.83,-154.83 37.47,-40.39 82.54,-72.01 135.82,-94.54 53.27,-22.54 106.24,-33.96 158.93,-33.96 55.61,0 102.15,5.57 139.61,16.69 37.76,11.12 77.28,28.1 119.13,50.93l10.25 -41.27 151.32 0 0 847.93zm-161.57 -153.37l0 -521.29c-43.03,-19.32 -82.83,-33.07 -119.71,-41.56 -37.17,-8.2 -73.76,-12.29 -110.64,-12.29 -88.69,0 -158.64,29.56 -209.57,88.98 -50.93,59.41 -76.39,145.47 -76.39,258.45 0,107.41 19.02,188.49 56.78,243.81 37.76,55.32 100.39,83.13 188.2,83.13 46.83,0 93.96,-9.08 141.08,-26.93 47.42,-18.15 90.74,-42.15 130.25,-72.3z"/>
  </g>
  <g id="_2589095861216">
   <path fill="white" fill-rule="nonzero" d="M1580.12 88.88c-118.5,-118.5 -310.95,-118.5 -429.45,0l-1061.78 1061.79c-118.51,118.5 -118.51,310.95 0,429.45l1061.78 1061.79c118.5,118.5 310.95,118.5 429.45,0 118.51,-118.51 118.51,-310.95 0,-429.46l-847.53 -846.58 847.53 -847.53c118.51,-118.51 118.51,-310.95 0,-429.46z"/>
   <path fill="white" fill-rule="nonzero" d="M3416.46 2212.05c-118.51,118.51 -118.51,310.95 0,429.46l846.58 847.53 -847.53 847.54c-118.5,118.5 -118.5,310.95 0,429.45 118.5,118.5 310.95,118.5 429.45,0l1061.79 -1061.79c118.5,-118.5 118.5,-310.95 0,-429.45l-1061.79 -1061.78c-118.5,-118.51 -310.95,-118.51 -429.45,0l0.95 -0.96z"/>
   <path fill="white" fill-rule="nonzero" d="M3188.34 11.89c-161.16,-46.45 -328.96,47.4 -375.41,208.57l-1213.47 4247.13c-46.46,161.17 47.4,328.97 208.56,375.42 161.16,46.46 328.96,-47.4 375.42,-208.56l1213.47 -4247.14c46.45,-161.16 -47.4,-328.96 -208.57,-375.42z"/>
  </g>
 </g>
</svg>
